<?xml version="1.0" encoding="UTF-8"?>
<svg id="_圖層_1" xmlns="http://www.w3.org/2000/svg" version="1.1" viewBox="0 0 487.8 63.7">
  <!-- Generator: Adobe Illustrator 29.3.1, SVG Export Plug-In . SVG Version: 2.1.0 Build 151)  -->
  <defs>
    <style>
      .st0 {
        fill: #ea4335;
      }

      .st1 {
        fill: #fff;
      }

      .st2 {
        fill: #fbbc04;
      }

      .st3 {
        fill: #4285f4;
      }

      .st4 {
        fill: #0f9d58;
      }
    </style>
  </defs>
  <path class="st1" d="M86.3,58.8v-15.3h2.2l7.7,12.2h0v-12.2h1.8v15.3h-1.9l-8-12.7h0v12.7s-1.8,0-1.8,0ZM104.2,59.1c-.8,0-1.5-.2-2.1-.5s-1.1-.7-1.5-1.3c-.3-.6-.5-1.2-.5-1.9s.2-1.5.6-2c.4-.6,1-1,1.7-1.2.7-.3,1.5-.4,2.3-.4s.9,0,1.3,0c.4,0,.8.2,1.1.3.3,0,.5.2.7.3v-.7c0-.8-.3-1.5-.9-2s-1.3-.7-2.1-.7-1.2,0-1.7.4c-.5.3-.9.6-1.2,1.1l-1.4-1c.3-.4.6-.8,1.1-1.1s.9-.6,1.5-.7c.6-.2,1.1-.3,1.8-.3,1.5,0,2.6.4,3.5,1.2.8.8,1.3,1.8,1.3,3.2v6.9h-1.7v-1.6h0c-.2.3-.5.6-.8.9s-.7.5-1.2.7-1,.3-1.5.3h-.3ZM104.4,57.5c.6,0,1.2-.2,1.7-.5s.9-.7,1.2-1.2c.3-.5.5-1.1.5-1.7-.3-.2-.7-.4-1.2-.5s-1-.2-1.6-.2c-1,0-1.8.2-2.3.6-.5.4-.7,1-.7,1.6s.2,1.1.7,1.5,1,.5,1.7.5h0ZM111.1,47.9h6.4v1.6h-6.4v-1.6ZM113,55.9v-11.1h1.8v10.6c0,.6,0,1,.3,1.3.2.3.6.5,1.2.5s.5,0,.7,0c.2,0,.4-.2.5-.2v1.8c-.2,0-.4.2-.6.2h-.9c-.9,0-1.7-.3-2.2-.8-.6-.5-.8-1.3-.8-2.2ZM119.9,58.8v-10.9h1.8v10.9s-1.8,0-1.8,0ZM120.8,45.9c-.4,0-.7,0-.9-.4-.2-.3-.4-.6-.4-.9s0-.7.4-.9.6-.4.9-.4.7,0,.9.4.4.6.4.9,0,.7-.4.9c-.2.3-.6.4-.9.4ZM129.5,59.1c-1.1,0-2.1-.3-2.9-.8s-1.5-1.2-2-2.1c-.5-.9-.7-1.9-.7-2.9s.2-2.1.7-2.9c.5-.9,1.1-1.6,2-2.1.8-.5,1.8-.8,2.9-.8s2.1.3,2.9.8c.8.5,1.5,1.2,2,2.1.5.9.7,1.8.7,2.9s-.2,2.1-.7,2.9c-.5.9-1.1,1.6-2,2.1-.8.5-1.8.8-2.9.8ZM129.5,57.5c.7,0,1.3-.2,1.8-.5.6-.3,1-.8,1.4-1.4.4-.6.5-1.4.5-2.2s-.2-1.6-.5-2.2c-.4-.6-.8-1.1-1.4-1.4-.6-.3-1.2-.5-1.8-.5s-1.3.2-1.9.5-1.1.8-1.4,1.4c-.4.6-.5,1.4-.5,2.2s.2,1.6.5,2.2c.4.6.8,1.1,1.4,1.4.6.3,1.2.5,1.9.5ZM137,58.8v-10.9h1.7v1.6h0c.3-.5.7-1,1.4-1.4s1.4-.6,2.1-.6c1.3,0,2.3.4,3,1.2s1,1.8,1,3.1v7h-1.8v-6.7c0-1.1-.3-1.8-.8-2.2s-1.1-.7-1.9-.7-1.1.2-1.6.5-.8.8-1.1,1.3c-.2.5-.4,1.1-.4,1.7v6.1h-1.8.2ZM152.3,59.1c-.8,0-1.5-.2-2.1-.5s-1.1-.7-1.5-1.3c-.3-.6-.5-1.2-.5-1.9s.2-1.5.6-2c.4-.6,1-1,1.7-1.2.7-.3,1.5-.4,2.3-.4s.9,0,1.3,0c.4,0,.8.2,1.1.3s.5.2.7.3v-.7c0-.8-.3-1.5-.9-2-.6-.5-1.3-.7-2.1-.7s-1.2,0-1.7.4c-.5.3-.9.6-1.2,1.1l-1.4-1c.3-.4.6-.8,1.1-1.1.4-.3.9-.6,1.5-.7.6-.2,1.1-.3,1.8-.3,1.5,0,2.6.4,3.5,1.2.8.8,1.3,1.8,1.3,3.2v6.9h-1.7v-1.6h0c-.2.3-.5.6-.8.9s-.7.5-1.2.7-1,.3-1.5.3h-.3ZM152.5,57.5c.6,0,1.2-.2,1.7-.5s.9-.7,1.2-1.2.5-1.1.5-1.7c-.3-.2-.7-.4-1.2-.5s-1-.2-1.6-.2c-1,0-1.8.2-2.3.6-.5.4-.7,1-.7,1.6s.2,1.1.7,1.5,1,.5,1.7.5h0ZM160.1,58.8v-15.3h1.8v15.3h-1.8ZM176.7,59.1c-1.1,0-2.2-.2-3.1-.6s-1.8-1-2.5-1.7-1.3-1.6-1.7-2.5c-.4-1-.6-2-.6-3.2s.2-2.2.6-3.2c.4-1,1-1.8,1.7-2.5s1.6-1.3,2.5-1.7,2-.6,3.1-.6,1.5,0,2.2.3c.7.2,1.3.5,1.9.9.6.4,1.1.8,1.5,1.3l-1.3,1.2c-.4-.5-.8-.8-1.2-1.1s-.9-.5-1.4-.7c-.5,0-1-.2-1.6-.2-1.1,0-2.1.3-3,.8s-1.7,1.2-2.2,2.2c-.6.9-.8,2-.8,3.3s.3,2.4.8,3.3c.6.9,1.3,1.7,2.2,2.2s1.9.8,3,.8,1.3,0,1.8-.3c.6-.2,1.1-.5,1.5-.8.5-.3.9-.8,1.3-1.2l1.3,1.3c-.4.5-1,1-1.6,1.4s-1.3.7-2,1c-.7.2-1.5.3-2.4.3ZM184.8,58.8v-15.3h1.8v6h0c.3-.5.7-1,1.4-1.4s1.4-.6,2.2-.6,1.7.2,2.3.6c.6.4,1.1.9,1.3,1.5.3.6.5,1.4.5,2.2v7h-1.8v-6.7c0-.7-.1-1.2-.4-1.7-.2-.4-.6-.7-1-.9s-.9-.3-1.3-.3-1.1.2-1.6.5-.8.8-1.1,1.3-.4,1.1-.4,1.7v6.1h-1.9ZM201.6,59.1c-1.1,0-2-.2-2.8-.8-.8-.5-1.5-1.2-1.9-2-.5-.9-.7-1.9-.7-3s.2-2,.6-2.9c.4-.9,1.1-1.6,1.8-2.1.8-.5,1.7-.8,2.8-.8s2,.2,2.8.7,1.4,1.1,1.8,2c.4.8.6,1.8.6,2.9s0,.2,0,.3v.2h-9.4v-1.5h7.5c0-.3,0-.6-.2-1-.1-.4-.3-.7-.6-1s-.6-.6-1-.8-.9-.3-1.5-.3-1.3.2-1.8.5c-.5.4-.9.9-1.2,1.5s-.4,1.3-.4,2.1.2,1.7.5,2.3c.4.6.8,1.1,1.4,1.4s1.2.5,1.8.5,1.4-.2,2-.6c.5-.4.9-.9,1.2-1.4l1.5.8c-.4.8-1,1.5-1.8,2s-1.8.8-3,.8v.2ZM208.8,58.8v-10.9h1.7v1.6h0c.3-.5.7-1,1.4-1.4s1.4-.6,2.1-.6c1.3,0,2.3.4,3,1.2s1,1.8,1,3.1v7h-1.8v-6.7c0-1.1-.3-1.8-.8-2.2s-1.1-.7-1.9-.7-1.1.2-1.6.5-.8.8-1.1,1.3c-.2.5-.4,1.1-.4,1.7v6.1h-1.8.2ZM225.4,63.7c-.9,0-1.7-.2-2.4-.5s-1.2-.7-1.6-1.2-.7-.9-.9-1.4l1.7-.7c.2.6.6,1.1,1.2,1.5.6.4,1.2.6,2,.6s2-.3,2.6-1,.9-1.6.9-2.8v-1.2h0c-.3.5-.8,1-1.5,1.3-.6.4-1.4.5-2.2.5s-1.8-.2-2.6-.7-1.4-1.2-1.8-2c-.5-.9-.7-1.9-.7-3s.2-2.1.7-3,1.1-1.5,1.8-2c.8-.5,1.6-.7,2.6-.7s1.6.2,2.2.5c.6.4,1.1.8,1.5,1.3h0v-1.5h1.7v10.5c0,1.2-.2,2.2-.7,3s-1.1,1.4-1.9,1.8c-.8.4-1.7.6-2.7.6h0ZM225.4,57.4c.6,0,1.2-.2,1.8-.5.5-.3,1-.8,1.3-1.4.3-.6.5-1.3.5-2.2s-.2-1.6-.5-2.2c-.3-.6-.7-1.1-1.3-1.4-.5-.3-1.1-.5-1.8-.5s-1.2.2-1.8.5c-.5.3-1,.8-1.3,1.4-.3.6-.5,1.3-.5,2.2s.2,1.6.5,2.2c.3.6.8,1.1,1.3,1.4.5.3,1.1.5,1.8.5ZM238.7,58.8v-15.3h1.8v15.3h-1.8ZM248,58.8l-5.5-7.9,1.2-1.4,6.5,9.3h0s-2.2,0-2.2,0ZM239.6,55.3v-2.6l7.8-9.2h2.3l-10.2,11.8h0ZM255.2,59.1c-1.3,0-2.4-.4-3-1.2-.7-.8-1-1.8-1-3.2v-6.8h1.8v6.6c0,1.1.2,1.9.7,2.3.5.5,1.1.7,1.9.7s1.2-.2,1.7-.5.8-.8,1.1-1.3c.3-.5.4-1.1.4-1.7v-6.1h1.8v10.9h-1.7v-1.6h0c-.2.3-.5.7-.8,1s-.8.5-1.2.7-.9.3-1.5.3h-.2ZM263.2,58.8v-10.9h1.7v1.6h0c.3-.5.7-1,1.4-1.4.7-.4,1.4-.6,2.1-.6,1.3,0,2.3.4,3,1.2s1,1.8,1,3.1v7h-1.8v-6.7c0-1.1-.3-1.8-.8-2.2s-1.1-.7-1.9-.7-1.1.2-1.6.5-.8.8-1.1,1.3c-.2.5-.4,1.1-.4,1.7v6.1h-1.8.2ZM279.9,63.7c-.9,0-1.7-.2-2.4-.5-.7-.3-1.2-.7-1.6-1.2s-.7-.9-.9-1.4l1.7-.7c.2.6.6,1.1,1.2,1.5s1.2.6,2,.6,2-.3,2.6-1,.9-1.6.9-2.8v-1.2h0c-.3.5-.8,1-1.5,1.3-.6.4-1.4.5-2.2.5s-1.8-.2-2.6-.7c-.8-.5-1.4-1.2-1.8-2-.5-.9-.7-1.9-.7-3s.2-2.1.7-3,1.1-1.5,1.8-2c.8-.5,1.6-.7,2.6-.7s1.6.2,2.2.5c.6.4,1.1.8,1.5,1.3h0v-1.5h1.7v10.5c0,1.2-.2,2.2-.7,3s-1.1,1.4-1.9,1.8c-.8.4-1.7.6-2.7.6h0ZM279.9,57.4c.6,0,1.2-.2,1.8-.5s1-.8,1.3-1.4c.3-.6.5-1.3.5-2.2s-.2-1.6-.5-2.2c-.3-.6-.7-1.1-1.3-1.4s-1.1-.5-1.8-.5-1.2.2-1.8.5c-.5.3-1,.8-1.3,1.4-.3.6-.5,1.3-.5,2.2s.2,1.6.5,2.2c.3.6.8,1.1,1.3,1.4.5.3,1.1.5,1.8.5ZM297.9,59.1c-1.1,0-2.1-.2-2.9-.8-.8-.5-1.5-1.2-2-2.1-.5-.9-.7-2-.7-3.1v-9.6h1.8v9.7c0,.8.1,1.5.4,2.1s.7,1.1,1.3,1.5c.6.4,1.3.5,2.1.5s1.5-.2,2.1-.5c.6-.4,1-.9,1.3-1.5s.4-1.3.4-2.1v-9.7h1.8v9.6c0,1.2-.2,2.2-.7,3.1-.4.9-1.1,1.6-1.9,2.1s-1.8.8-3,.8h0ZM306.3,58.8v-10.9h1.7v1.6h0c.3-.5.7-1,1.4-1.4.7-.4,1.4-.6,2.1-.6,1.3,0,2.3.4,3,1.2s1,1.8,1,3.1v7h-1.8v-6.7c0-1.1-.3-1.8-.8-2.2s-1.1-.7-1.9-.7-1.1.2-1.6.5-.8.8-1.1,1.3c-.2.5-.4,1.1-.4,1.7v6.1h-1.8.2ZM318.4,58.8v-10.9h1.8v10.9s-1.8,0-1.8,0ZM319.3,45.9c-.4,0-.7,0-.9-.4-.2-.3-.4-.6-.4-.9s.1-.7.4-.9.6-.4.9-.4.7,0,.9.4.4.6.4.9-.1.7-.4.9c-.2.3-.6.4-.9.4ZM326.3,58.8l-4.4-10.9h1.9l3.4,8.7h0l3.4-8.7h1.9l-4.4,10.9s-1.8,0-1.8,0ZM338.5,59.1c-1.1,0-2-.2-2.8-.8-.8-.5-1.5-1.2-1.9-2-.5-.9-.7-1.9-.7-3s.2-2,.6-2.9,1.1-1.6,1.8-2.1,1.7-.8,2.8-.8,2,.2,2.8.7,1.4,1.1,1.8,2,.6,1.8.6,2.9,0,.2,0,.3v.2h-9.4v-1.5h7.5c0-.3,0-.6-.2-1-.1-.4-.3-.7-.6-1-.3-.3-.6-.6-1-.8s-.9-.3-1.5-.3-1.3.2-1.8.5c-.5.4-.9.9-1.2,1.5-.3.6-.4,1.3-.4,2.1s.2,1.7.5,2.3c.4.6.8,1.1,1.4,1.4s1.2.5,1.8.5,1.4-.2,2-.6c.5-.4.9-.9,1.2-1.4l1.5.8c-.4.8-1,1.5-1.8,2s-1.8.8-3,.8v.2ZM345.7,58.8v-10.9h1.7v1.8h0c.1-.4.4-.8.7-1.1.3-.3.7-.6,1.1-.7.4-.2.9-.3,1.3-.3h.8c.2,0,.4,0,.5.2v2c-.2,0-.5-.2-.7-.2h-.8c-.5,0-1,.2-1.5.5-.4.3-.8.7-1.1,1.2-.3.5-.4,1-.4,1.6v6.1h-1.8l.2-.2ZM357.1,59.1c-.8,0-1.5,0-2.2-.4-.6-.3-1.1-.6-1.5-1.1-.4-.4-.7-.9-.9-1.5l1.6-.7c.3.7.7,1.2,1.2,1.5.5.4,1.2.5,1.9.5s1.2,0,1.7-.4c.4-.3.7-.7.7-1.2s0-.6-.3-.8c-.2-.2-.4-.4-.8-.6-.4-.2-.8-.3-1.3-.4l-1.3-.3c-.5,0-1-.3-1.5-.6s-.8-.6-1.1-1c-.3-.4-.4-.9-.4-1.5s.2-1.2.6-1.7.9-.8,1.5-1.1,1.3-.4,2-.4,1.2,0,1.8.3c.6.2,1,.4,1.4.8.4.3.7.8,1,1.3l-1.6.7c-.3-.5-.6-.9-1.1-1.1-.4-.2-1-.3-1.5-.3s-1.1,0-1.6.4c-.4.3-.7.6-.7,1.1s.2.8.5,1c.4.2.8.4,1.3.5l1.6.4c1.1.3,1.9.7,2.4,1.2s.8,1.2.8,2-.2,1.3-.6,1.8-.9.9-1.6,1.2-1.4.4-2.2.4h.2ZM363.4,58.8v-10.9h1.8v10.9s-1.8,0-1.8,0ZM364.3,45.9c-.4,0-.7,0-.9-.4-.2-.3-.4-.6-.4-.9s.1-.7.4-.9.6-.4.9-.4.7,0,.9.4.4.6.4.9-.1.7-.4.9c-.2.3-.6.4-.9.4ZM367.2,47.9h6.4v1.6h-6.4v-1.6ZM369.1,55.9v-11.1h1.8v10.6c0,.6.1,1,.3,1.3.2.3.6.5,1.2.5s.5,0,.7,0c.2,0,.4-.2.5-.2v1.8c-.2,0-.4.2-.6.2h-.9c-.9,0-1.7-.3-2.2-.8-.6-.5-.8-1.3-.8-2.2ZM379,62.8c0,0,0,.2-.2.3v.2h-1.9c0-.2.2-.4.3-.6.1-.2.2-.5.4-.8,0-.2.2-.4.2-.5,0-.2.2-.3.2-.5s.2-.4.3-.7l1.5-3.2.4-1,3.3-8.1h2l-5.6,13c0,0-.2.3-.3.6-.1.3-.2.6-.3.8-.1.3-.2.4-.2.5h0ZM379.4,58.3l-4.6-10.4h2l3.4,8.1h.2l-.9,2.3h-.1Z"/>
  <path class="st1" d="M92.4,28.1c-2-1.2-3.5-2.8-4.8-4.8-1.2-2-1.7-4.3-1.7-6.8s.6-4.8,1.7-6.8c1.2-2,2.8-3.7,4.8-4.8,2-1.2,4.2-1.7,6.6-1.7s3.7.3,5.2.9c1.7.6,2.9,1.5,4,2.8l-2.2,2.2c-.8-.9-1.8-1.7-3.1-2.3-1.2-.5-2.6-.8-4-.8s-3.4.5-4.9,1.2c-1.5.9-2.8,2.2-3.7,3.7-.9,1.5-1.4,3.4-1.4,5.4s.5,3.8,1.4,5.4c.9,1.5,2.2,2.8,3.7,3.7,1.5.9,3.2,1.2,4.9,1.2s3.1-.3,4.3-.8c1.1-.5,2.2-1.2,2.9-2.2.6-.6,1.1-1.5,1.5-2.5.3-.9.6-2,.6-3.1h-9.4v-2.8h12.2c.2.6.2,1.2.2,1.8,0,1.5-.3,3.1-.8,4.6s-1.2,2.8-2.3,3.8c-2.5,2.5-5.5,3.8-9.4,3.8-2.3.2-4.5-.3-6.5-1.5l.2.4Z"/>
  <path class="st1" d="M118.1,28.6c-1.4-.8-2.5-2-3.2-3.4-.8-1.4-1.1-3.1-1.1-4.8s.3-3.4,1.1-4.8c.8-1.4,1.8-2.6,3.2-3.4,1.4-.8,2.9-1.2,4.6-1.2s3.2.5,4.6,1.2c1.4.8,2.5,2,3.2,3.4.8,1.4,1.1,3.1,1.1,4.8s-.3,3.4-1.1,4.8-1.8,2.6-3.2,3.4-2.9,1.2-4.6,1.2-3.4-.3-4.6-1.2ZM125.7,26.3c.9-.6,1.7-1.4,2.2-2.3.6-1.1.8-2.2.8-3.5s-.3-2.5-.8-3.5c-.6-1.1-1.2-1.8-2.2-2.3-.9-.6-1.8-.8-2.9-.8s-2,.3-2.9.8c-.9.6-1.7,1.4-2.2,2.3-.6,1.1-.8,2.2-.8,3.5s.3,2.5.8,3.5c.6,1.1,1.2,1.8,2.2,2.3.9.6,1.8.8,2.9.8,1.1.2,2-.2,2.9-.8Z"/>
  <path class="st1" d="M138.1,28.6c-1.4-.8-2.5-2-3.2-3.4-.8-1.4-1.1-3.1-1.1-4.8s.3-3.4,1.1-4.8c.8-1.4,1.8-2.6,3.2-3.4,1.4-.8,2.9-1.2,4.6-1.2s3.2.5,4.6,1.2c1.4.8,2.5,2,3.2,3.4.8,1.4,1.1,3.1,1.1,4.8s-.3,3.4-1.1,4.8-1.8,2.6-3.2,3.4-2.9,1.2-4.6,1.2-3.2-.3-4.6-1.2ZM145.8,26.3c.9-.6,1.7-1.4,2.2-2.3.6-1.1.8-2.2.8-3.5s-.3-2.5-.8-3.5c-.6-1.1-1.2-1.8-2.2-2.3-.9-.6-1.8-.8-2.9-.8s-2,.3-2.9.8c-.9.6-1.7,1.4-2.2,2.3-.6,1.1-.8,2.2-.8,3.5s.3,2.5.8,3.5c.6,1.1,1.2,1.8,2.2,2.3.9.6,1.8.8,2.9.8.9.2,2-.2,2.9-.8Z"/>
  <path class="st1" d="M157.4,36c-1.4-1.1-2.3-2.2-2.8-3.5l2.8-1.2c.3,1.1.9,1.8,1.8,2.5.9.6,2,.9,3.2.9,1.8,0,3.2-.6,4.3-1.7,1.1-1.1,1.5-2.6,1.5-4.6v-1.8h-.2c-.6.9-1.4,1.7-2.5,2.3-1.1.6-2.3.9-3.5.9s-2.9-.5-4.2-1.2c-1.2-.8-2.3-1.8-3.1-3.4-.8-1.4-1.1-3.1-1.1-4.8s.3-3.4,1.1-4.8c.8-1.4,1.8-2.6,3.1-3.4,1.2-.8,2.6-1.2,4.2-1.2s2.6.3,3.5.9c1.1.6,1.8,1.4,2.5,2.3h.2v-2.6h2.9v16.9c0,2-.3,3.5-1.1,4.9s-1.8,2.3-3.1,3.1c-1.4.6-2.8.9-4.5.9-2.2.2-3.8-.3-5.2-1.4h.2ZM165.5,26.3c.9-.5,1.5-1.2,2.2-2.3.5-.9.8-2.2.8-3.5s-.3-2.5-.8-3.5c-.5-1.1-1.2-1.8-2.2-2.3-.9-.5-1.8-.8-2.9-.8s-2,.3-2.9.8-1.5,1.2-2.2,2.3c-.5.9-.8,2.2-.8,3.5s.3,2.5.8,3.5c.5.9,1.2,1.7,2.2,2.3.9.5,1.8.8,2.9.8,1.1.2,2-.2,2.9-.8Z"/>
  <path class="st1" d="M178,4h-3.1v25.4h3.1V4Z"/>
  <path class="st1" d="M184.9,28.6c-1.4-.8-2.3-1.8-3.1-3.4-.8-1.4-1.1-3.1-1.1-4.8s.3-3.2,1.1-4.8c.8-1.4,1.7-2.6,3.1-3.4,1.4-.8,2.8-1.2,4.5-1.2s3.2.3,4.5,1.1c1.2.8,2.3,1.8,2.9,3.2.6,1.4,1.1,2.9,1.1,4.8v.8h-14c0,1.4.3,2.5.9,3.4.6.9,1.4,1.5,2.2,2,.9.5,1.8.6,2.8.6,2.2,0,4-1.1,5.1-3.2l2.6,1.2c-.8,1.4-1.8,2.6-3.1,3.4-1.4.9-2.9,1.2-4.8,1.2-1.7.3-3.2,0-4.6-.9h0ZM194.6,18.6c0-.8-.3-1.4-.6-2.2-.3-.8-.9-1.4-1.7-1.8s-1.8-.8-3.1-.8-2.5.5-3.4,1.2c-.9.9-1.5,2-1.8,3.4h10.6v.2Z"/>
  <path class="st1" d="M209.2,4h7.7c2.6,0,4.9.6,6.8,1.5,2,1.1,3.4,2.6,4.5,4.5,1.1,1.8,1.5,4.2,1.5,6.6s-.5,4.6-1.5,6.6c-1.1,1.8-2.5,3.4-4.5,4.5s-4.2,1.5-6.8,1.5h-7.7V4ZM216.9,26.4c2.9,0,5.4-.9,7.1-2.6,1.7-1.7,2.6-4.2,2.6-7.2s-.9-5.5-2.6-7.2c-1.7-1.7-4.2-2.6-7.1-2.6h-4.6v19.7h4.6Z"/>
  <path class="st1" d="M236.6,28.6c-1.4-.8-2.3-1.8-3.1-3.4-.8-1.4-1.1-3.1-1.1-4.8s.3-3.2,1.1-4.8c.8-1.4,1.7-2.6,3.1-3.4,1.4-.8,2.8-1.2,4.5-1.2s3.2.3,4.5,1.1c1.2.8,2.3,1.8,2.9,3.2.6,1.4,1.1,2.9,1.1,4.8v.8h-14c0,1.4.3,2.5.9,3.4.6.9,1.4,1.5,2.2,2,.9.5,1.8.6,2.8.6,2.2,0,4-1.1,5.1-3.2l2.6,1.2c-.8,1.4-1.8,2.6-3.1,3.4-1.4.9-2.9,1.2-4.8,1.2-1.7.3-3.2,0-4.6-.9h0ZM246.3,18.6c0-.8-.3-1.4-.6-2.2-.3-.8-.9-1.4-1.7-1.8-.8-.5-1.8-.8-3.1-.8s-2.5.5-3.4,1.2c-.9.9-1.5,2-1.8,3.4h10.6v.2Z"/>
  <path class="st1" d="M250.1,11.7h3.2l5.4,14.2h.2l5.4-14.2h3.2l-7.2,17.7h-3.1s-7.1-17.7-7.1-17.7Z"/>
  <path class="st1" d="M273.1,28.6c-1.4-.8-2.3-1.8-3.1-3.4-.8-1.4-1.1-3.1-1.1-4.8s.3-3.2,1.1-4.8c.8-1.4,1.7-2.6,3.1-3.4,1.4-.8,2.8-1.2,4.5-1.2s3.2.3,4.5,1.1c1.2.8,2.3,1.8,2.9,3.2s1.1,2.9,1.1,4.8v.8h-14.2c0,1.4.3,2.5.9,3.4s1.4,1.5,2.2,2c.9.5,1.8.6,2.8.6,2.2,0,4-1.1,5.1-3.2l2.6,1.2c-.8,1.4-1.8,2.6-3.1,3.4-1.4.9-2.9,1.2-4.8,1.2-1.7.3-3.2,0-4.5-.9ZM282.6,18.6c0-.8-.3-1.4-.6-2.2-.3-.8-.9-1.4-1.7-1.8-.8-.5-1.8-.8-3.1-.8s-2.5.5-3.4,1.2c-.9.9-1.5,2-1.8,3.4h10.6v.2Z"/>
  <path class="st1" d="M292,4h-3.1v25.4h3.1V4Z"/>
  <path class="st1" d="M299.1,28.6c-1.4-.8-2.5-2-3.2-3.4-.8-1.4-1.1-3.1-1.1-4.8s.3-3.4,1.1-4.8c.8-1.4,1.8-2.6,3.2-3.4,1.4-.8,2.9-1.2,4.6-1.2s3.2.5,4.6,1.2c1.4.8,2.5,2,3.2,3.4.8,1.4,1.1,3.1,1.1,4.8s-.3,3.4-1.1,4.8c-.8,1.4-1.8,2.6-3.2,3.4-1.4.8-2.9,1.2-4.6,1.2s-3.2-.3-4.6-1.2ZM306.7,26.3c.9-.6,1.7-1.4,2.2-2.3.6-1.1.8-2.2.8-3.5s-.3-2.5-.8-3.5c-.6-1.1-1.2-1.8-2.2-2.3-.9-.6-1.8-.8-2.9-.8s-2,.3-2.9.8c-.9.6-1.7,1.4-2.2,2.3-.6,1.1-.8,2.2-.8,3.5s.3,2.5.8,3.5c.6,1.1,1.2,1.8,2.2,2.3.9.6,1.8.8,2.9.8.9.2,2-.2,2.9-.8Z"/>
  <path class="st1" d="M315.5,11.7h2.9v2.6h.2c.6-.9,1.4-1.7,2.5-2.3s2.3-.9,3.7-.9,2.9.5,4.2,1.2c1.2.8,2.3,2,3.1,3.4.8,1.4,1.1,3.1,1.1,4.8s-.3,3.4-1.1,4.8c-.8,1.4-1.8,2.5-3.1,3.4-1.2.8-2.6,1.2-4.2,1.2s-2.6-.3-3.7-.9-1.8-1.4-2.5-2.3h-.2l.2,2.5v7.8h-3.1V11.7ZM327.1,26.3c.9-.6,1.5-1.4,2.2-2.3.5-1.1.8-2.2.8-3.5s-.3-2.5-.8-3.5c-.5-1.1-1.2-1.8-2.2-2.3-.9-.6-1.8-.8-2.9-.8s-2,.3-2.9.8-1.5,1.2-2.2,2.3c-.5,1.1-.8,2.2-.8,3.5s.3,2.5.8,3.5c.5,1.1,1.2,1.8,2.2,2.3.9.5,1.8.8,2.9.8,1.1.2,2-.2,2.9-.8Z"/>
  <path class="st1" d="M340,28.6c-1.4-.8-2.3-1.8-3.1-3.4-.8-1.4-1.1-3.1-1.1-4.8s.3-3.2,1.1-4.8c.8-1.4,1.7-2.6,3.1-3.4,1.4-.8,2.8-1.2,4.5-1.2s3.2.3,4.5,1.1c1.2.8,2.3,1.8,2.9,3.2s1.1,2.9,1.1,4.8v.8h-14c0,1.4.3,2.5.9,3.4s1.4,1.5,2.2,2c.9.5,1.8.6,2.8.6,2.2,0,4-1.1,5.1-3.2l2.6,1.2c-.8,1.4-1.8,2.6-3.1,3.4-1.4.9-2.9,1.2-4.8,1.2-1.7.3-3.2,0-4.6-.9h-.1ZM349.7,18.6c0-.8-.3-1.4-.6-2.2-.3-.8-.9-1.4-1.7-1.8-.8-.5-1.8-.8-3.1-.8s-2.5.5-3.4,1.2c-.9.9-1.5,2-1.8,3.4h10.6v.2Z"/>
  <path class="st1" d="M355.8,11.7h2.9v2.9h.2c.3-.9,1.1-1.8,2-2.5,1.1-.6,2-.9,3.1-.9s1.4.2,2,.3v3.2c-.6-.3-1.5-.5-2.5-.5s-1.5.3-2.3.8-1.2,1.1-1.7,2c-.5.8-.6,1.7-.6,2.6v9.8h-3.1V11.7h0Z"/>
  <path class="st1" d="M381.5,28.1c-2-1.2-3.5-2.8-4.8-4.8-1.2-2-1.7-4.3-1.7-6.8s.6-4.8,1.7-6.8c1.2-2,2.8-3.7,4.8-4.8,2-1.2,4.2-1.7,6.6-1.7s3.7.3,5.2.9c1.7.6,2.9,1.5,4,2.8l-2.2,2.2c-.8-.9-1.8-1.7-3.1-2.3-1.2-.5-2.6-.8-4-.8s-3.4.5-4.9,1.2c-1.5.9-2.8,2.2-3.7,3.7-.9,1.5-1.4,3.4-1.4,5.4s.5,3.8,1.4,5.4c.9,1.5,2.2,2.8,3.7,3.7,1.5.9,3.2,1.2,4.9,1.2s3.1-.3,4.3-.8c1.1-.5,2.2-1.2,2.9-2.2.6-.6,1.1-1.5,1.5-2.5.3-.9.6-2,.6-3.1h-9.4v-2.8h12.2c.2.6.2,1.2.2,1.8,0,1.5-.3,3.1-.8,4.6s-1.2,2.8-2.3,3.8c-2.5,2.5-5.5,3.8-9.4,3.8-2.2.2-4.5-.3-6.5-1.5l.2.4Z"/>
  <path class="st1" d="M404,11.7h2.9v2.9h.2c.3-.9,1.1-1.8,2-2.5,1.1-.6,2-.9,3.1-.9s1.4.2,2,.3v3.2c-.6-.3-1.5-.5-2.5-.5s-1.5.3-2.3.8-1.2,1.1-1.7,2c-.5.8-.6,1.7-.6,2.6v9.8h-3.1V11.7h0Z"/>
  <path class="st1" d="M418.9,28.6c-1.4-.8-2.5-2-3.2-3.4-.8-1.4-1.1-3.1-1.1-4.8s.3-3.4,1.1-4.8c.8-1.4,1.8-2.6,3.2-3.4,1.4-.8,2.9-1.2,4.6-1.2s3.2.5,4.6,1.2c1.4.8,2.5,2,3.2,3.4.8,1.4,1.1,3.1,1.1,4.8s-.3,3.4-1.1,4.8c-.8,1.4-1.8,2.6-3.2,3.4-1.4.8-2.9,1.2-4.6,1.2s-3.2-.3-4.6-1.2ZM426.6,26.3c.9-.6,1.7-1.4,2.2-2.3.6-1.1.8-2.2.8-3.5s-.3-2.5-.8-3.5c-.6-1.1-1.2-1.8-2.2-2.3-.9-.6-1.8-.8-2.9-.8s-2,.3-2.9.8c-.9.6-1.7,1.4-2.2,2.3-.6,1.1-.8,2.2-.8,3.5s.3,2.5.8,3.5c.6,1.1,1.2,1.8,2.2,2.3.9.6,1.8.8,2.9.8.9.2,2-.2,2.9-.8Z"/>
  <path class="st1" d="M437.1,28c-1.1-1.2-1.7-2.9-1.7-5.2v-11.1h3.1v10.6c0,3.2,1.4,4.9,4.3,4.9s1.8-.3,2.6-.8c.8-.6,1.4-1.2,1.8-2.2.5-.9.6-1.8.6-2.8v-9.7h2.9v17.5h-2.8v-2.6h-.2c-.5.9-1.2,1.7-2.3,2.3s-2.2.9-3.4.9c-2.3-.2-4-.8-5.1-2l.2.2Z"/>
  <path class="st1" d="M454.6,11.7h2.9v2.6h.2c.6-.9,1.4-1.7,2.5-2.3s2.3-.9,3.7-.9,2.9.5,4.2,1.2c1.2.8,2.3,2,3.1,3.4.8,1.4,1.1,3.1,1.1,4.8s-.3,3.4-1.1,4.8c-.8,1.4-1.8,2.5-3.1,3.4-1.2.8-2.6,1.2-4.2,1.2s-2.6-.3-3.7-.9-1.8-1.4-2.5-2.3h-.2l.2,2.5v7.8h-3.1V11.7ZM466.1,26.3c.9-.6,1.5-1.4,2.2-2.3.5-1.1.8-2.2.8-3.5s-.3-2.5-.8-3.5c-.5-1.1-1.2-1.8-2.2-2.3-.9-.6-1.8-.8-2.9-.8s-2,.3-2.9.8-1.5,1.2-2.2,2.3c-.5,1.1-.8,2.2-.8,3.5s.3,2.5.8,3.5c.5,1.1,1.2,1.8,2.2,2.3.9.5,1.8.8,2.9.8,1.1.2,2.2-.2,2.9-.8Z"/>
  <path class="st1" d="M476.4,28.4c-1.2-.9-2.2-2.2-2.8-3.5l2.6-1.2c.5,1.1,1.1,2,2,2.6s1.8.9,2.8.9,2-.3,2.8-.8,1.1-1.1,1.1-1.8-.3-1.2-.8-1.7c-.6-.5-1.5-.8-2.9-1.2l-2.5-.6c-1.4-.3-2.5-.9-3.4-1.7-.9-.8-1.4-1.8-1.4-3.2s.3-2,.9-2.8,1.4-1.4,2.5-1.8c1.1-.5,2.2-.6,3.4-.6s2.9.3,4.2,1.1c1.2.8,2.2,1.7,2.6,2.9l-2.6,1.1c-.3-.9-.9-1.5-1.7-1.8-.8-.5-1.7-.6-2.6-.6s-1.7.2-2.5.6c-.8.5-1.1,1.1-1.1,1.7s.3,1.1.8,1.4,1.2.6,2.3.9l2.6.6c1.7.5,3.1,1.1,3.8,2,.9.9,1.2,2,1.2,3.2s-.3,2-.9,2.8-1.4,1.5-2.5,2-2.3.8-3.5.8c-1.5.3-3.2-.2-4.5-1.1v-.2Z"/>
  <path class="st0" d="M16.9,17.1l11.4-6.6c2.6-1.5,3.5-4.9,2-7.7-1.5-2.6-4.9-3.5-7.7-2L2.9,12.1l14,4.9h0Z"/>
  <path class="st3" d="M25.4,33.8c2,0,3.8-1.1,4.8-2.8,1.5-2.6.6-6.2-2-7.7L8.4,12c-2.6-1.5-6.2-.6-7.7,2s-.6,6.2,2,7.7l19.7,11.4c1.1.6,2,.8,2.9.8h0Z"/>
  <path class="st2" d="M44.9,33.8c.9,0,1.8-.3,2.8-.8l19.7-11.4-13.7-5.1-11.5,6.6c-2.6,1.5-3.5,4.9-2,7.7,1.1,2,2.9,2.9,4.8,2.9h0Z"/>
  <path class="st4" d="M64.6,22.6c2,0,3.8-1.1,4.8-2.8,1.5-2.6.6-6.2-2-7.7L47.7.7c-2.6-1.5-6.2-.6-7.7,2-1.5,2.6-.6,6.2,2,7.7l19.7,11.4c.9.5,2,.8,2.9.8Z"/>
</svg>